<?xml version="1.0" encoding="UTF-8"?>
<!DOCTYPE svg PUBLIC "-//W3C//DTD SVG 1.1//EN" "http://www.w3.org/Graphics/SVG/1.1/DTD/svg11.dtd">
<svg xmlns="http://www.w3.org/2000/svg" version="1.1" width="424px" height="438px" style="shape-rendering:geometricPrecision; text-rendering:geometricPrecision; image-rendering:optimizeQuality; fill-rule:evenodd; clip-rule:evenodd" xmlns:xlink="http://www.w3.org/1999/xlink">
<g><path style="opacity:1" fill="#e0d3e7" d="M 420.5,-0.5 C 421.5,-0.5 422.5,-0.5 423.5,-0.5C 423.5,0.166667 423.5,0.833333 423.5,1.5C 419.154,4.9176 414.821,8.25093 410.5,11.5C 411.782,9.53553 413.115,7.53553 414.5,5.5C 414.043,4.70245 413.376,4.36912 412.5,4.5C 414.925,2.40108 417.591,0.734411 420.5,-0.5 Z"/></g>
<g><path style="opacity:0.949" fill="#ada3b7" d="M 411.5,4.5 C 411.027,5.90632 410.027,6.57298 408.5,6.5C 408.973,5.09368 409.973,4.42702 411.5,4.5 Z"/></g>
<g><path style="opacity:1" fill="#ece4f0" d="M 411.5,4.5 C 411.833,4.5 412.167,4.5 412.5,4.5C 413.376,4.36912 414.043,4.70245 414.5,5.5C 413.115,7.53553 411.782,9.53553 410.5,11.5C 409.089,13.914 407.089,15.5806 404.5,16.5C 404.646,14.0576 403.813,13.3909 402,14.5C 401.302,11.5894 399.802,10.9227 397.5,12.5C 400.646,9.75629 404.313,7.75629 408.5,6.5C 410.027,6.57298 411.027,5.90632 411.5,4.5 Z"/></g>
<g><path style="opacity:0.439" fill="#9e91ac" d="M 396.5,12.5 C 396.027,13.9063 395.027,14.573 393.5,14.5C 393.973,13.0937 394.973,12.427 396.5,12.5 Z"/></g>
<g><path style="opacity:0.651" fill="#b7a6d0" d="M 393.5,14.5 C 393.027,15.9063 392.027,16.573 390.5,16.5C 390.973,15.0937 391.973,14.427 393.5,14.5 Z"/></g>
<g><path style="opacity:1" fill="#d5cedd" d="M 404.5,16.5 C 404.489,18.0174 403.823,19.1841 402.5,20C 400.266,21.7498 397.932,23.2498 395.5,24.5C 395.5,23.1667 395.5,21.8333 395.5,20.5C 397.564,20.313 399.564,19.813 401.5,19C 400.833,18.3333 400.167,17.6667 399.5,17C 401.134,16.5065 402.801,16.3398 404.5,16.5 Z"/></g>
<g><path style="opacity:1" fill="#f7f4f7" d="M 404.5,16.5 C 402.801,16.3398 401.134,16.5065 399.5,17C 400.167,17.6667 400.833,18.3333 401.5,19C 399.564,19.813 397.564,20.313 395.5,20.5C 395.5,21.8333 395.5,23.1667 395.5,24.5C 395.5,25.8333 394.833,26.5 393.5,26.5C 391.833,26.5 390.167,26.5 388.5,26.5C 388.5,28.1667 388.5,29.8333 388.5,31.5C 387.205,32.4884 385.872,33.4884 384.5,34.5C 383.5,34.8333 382.833,35.5 382.5,36.5C 381.312,37.6843 380.145,37.6843 379,36.5C 378.5,37.6667 377.667,38.5 376.5,39C 376.833,39.3333 377.167,39.6667 377.5,40C 376.552,40.4828 375.552,40.6495 374.5,40.5C 374.422,37.169 373.755,34.5024 372.5,32.5C 369.833,32.5 367.167,32.5 364.5,32.5C 364.973,31.0937 365.973,30.427 367.5,30.5C 368.5,30.1667 369.167,29.5 369.5,28.5C 370.833,27.8333 372.167,27.1667 373.5,26.5C 375.027,26.573 376.027,25.9063 376.5,24.5C 380.837,21.2747 385.504,18.608 390.5,16.5C 392.027,16.573 393.027,15.9063 393.5,14.5C 395.027,14.573 396.027,13.9063 396.5,12.5C 396.833,12.5 397.167,12.5 397.5,12.5C 399.802,10.9227 401.302,11.5894 402,14.5C 403.813,13.3909 404.646,14.0576 404.5,16.5 Z"/></g>
<g><path style="opacity:0.557" fill="#a899b7" d="M 376.5,24.5 C 376.027,25.9063 375.027,26.573 373.5,26.5C 373.973,25.0937 374.973,24.427 376.5,24.5 Z"/></g>
<g><path style="opacity:1" fill="#d8cde1" d="M 393.5,26.5 C 392.215,28.4516 390.549,30.1182 388.5,31.5C 388.5,29.8333 388.5,28.1667 388.5,26.5C 390.167,26.5 391.833,26.5 393.5,26.5 Z"/></g>
<g><path style="opacity:0.039" fill="#756984" d="M 369.5,28.5 C 369.167,29.5 368.5,30.1667 367.5,30.5C 367.5,29.1667 368.167,28.5 369.5,28.5 Z"/></g>
<g><path style="opacity:0.698" fill="#7f7991" d="M 363.5,32.5 C 363.027,33.9063 362.027,34.573 360.5,34.5C 360.973,33.0937 361.973,32.427 363.5,32.5 Z"/></g>
<g><path style="opacity:0.02" fill="#867a94" d="M 384.5,34.5 C 384.5,35.8333 383.833,36.5 382.5,36.5C 382.833,35.5 383.5,34.8333 384.5,34.5 Z"/></g>
<g><path style="opacity:0.925" fill="#ada6c0" d="M 360.5,34.5 C 359.415,36.5869 357.749,37.9202 355.5,38.5C 356.585,36.4131 358.251,35.0798 360.5,34.5 Z"/></g>
<g><path style="opacity:1" fill="#fdfbfc" d="M 363.5,32.5 C 363.833,32.5 364.167,32.5 364.5,32.5C 367.167,32.5 369.833,32.5 372.5,32.5C 373.755,34.5024 374.422,37.169 374.5,40.5C 373.589,42.8029 371.923,44.3029 369.5,45C 370.684,46.1455 370.684,47.3121 369.5,48.5C 366.463,48.4477 363.796,49.4477 361.5,51.5C 360.359,52.4255 360.359,53.2588 361.5,54C 359.381,54.3418 359.047,55.1751 360.5,56.5C 359.127,56.3433 357.793,56.51 356.5,57C 357.252,57.6708 357.586,58.5041 357.5,59.5C 357.068,60.7095 356.401,61.7095 355.5,62.5C 354.833,62.5 354.167,62.5 353.5,62.5C 352.883,62.3893 352.383,62.056 352,61.5C 350.681,63.4875 348.848,64.6541 346.5,65C 345.215,66.3118 345.215,68.1451 346.5,70.5C 342.976,70.9289 339.976,72.4289 337.5,75C 338.337,76.0113 338.67,77.1779 338.5,78.5C 333.122,78.5448 330.455,81.2114 330.5,86.5C 326.405,87.4784 323.072,89.645 320.5,93C 321.337,94.0113 321.67,95.1779 321.5,96.5C 321.167,96.5 320.833,96.5 320.5,96.5C 319.127,96.3433 317.793,96.51 316.5,97C 316.833,97.3333 317.167,97.6667 317.5,98C 314.476,99.7991 312.643,102.299 312,105.5C 310.951,104.483 309.784,104.316 308.5,105C 308.854,106.626 308.854,108.459 308.5,110.5C 308.5,111.833 307.833,112.5 306.5,112.5C 305.127,112.343 303.793,112.51 302.5,113C 302.833,113.333 303.167,113.667 303.5,114C 301.893,115.049 301.227,116.549 301.5,118.5C 299.567,118.729 297.9,119.562 296.5,121C 296.833,121.333 297.167,121.667 297.5,122C 295.963,123.11 295.297,124.61 295.5,126.5C 295.5,127.167 295.5,127.833 295.5,128.5C 293.914,130.67 292.58,133.004 291.5,135.5C 289.896,136.287 289.229,137.62 289.5,139.5C 289.737,140.791 289.404,141.791 288.5,142.5C 287.596,143.209 287.263,144.209 287.5,145.5C 288.791,145.737 289.791,145.404 290.5,144.5C 294.043,142.764 297.709,141.431 301.5,140.5C 306.36,139.012 311.36,138.179 316.5,138C 316.167,137.667 315.833,137.333 315.5,137C 318.793,136.855 321.126,135.355 322.5,132.5C 324.898,132.741 326.898,132.074 328.5,130.5C 330.898,130.741 332.898,130.074 334.5,128.5C 336.421,127.637 338.421,126.971 340.5,126.5C 343.495,126.706 346.162,126.04 348.5,124.5C 348.833,124.5 349.167,124.5 349.5,124.5C 352.152,124.59 354.485,123.924 356.5,122.5C 359.428,122.435 362.095,121.768 364.5,120.5C 367.428,120.435 370.095,119.768 372.5,118.5C 375.428,118.435 378.095,117.768 380.5,116.5C 380.833,116.5 381.167,116.5 381.5,116.5C 384.152,116.59 386.485,115.924 388.5,114.5C 388.833,114.5 389.167,114.5 389.5,114.5C 392.781,114.58 395.781,113.913 398.5,112.5C 399.5,112.5 400.5,112.5 401.5,112.5C 404.898,112.18 408.232,112.513 411.5,113.5C 410.975,114.192 410.308,114.692 409.5,115C 410.337,116.011 410.67,117.178 410.5,118.5C 410.167,118.5 409.833,118.5 409.5,118.5C 406.63,118.248 404.297,119.248 402.5,121.5C 402.709,122.086 403.043,122.586 403.5,123C 401.047,123.727 398.714,124.727 396.5,126C 397.252,126.671 397.586,127.504 397.5,128.5C 396.325,128.281 395.325,128.614 394.5,129.5C 392.38,131.272 390.713,133.272 389.5,135.5C 389.167,136.5 388.5,137.167 387.5,137.5C 381.5,136.167 379.167,138.5 380.5,144.5C 379.5,145.167 378.5,145.833 377.5,146.5C 376.5,146.833 375.833,147.5 375.5,148.5C 374.167,149.167 373.167,150.167 372.5,151.5C 370.801,151.34 369.134,151.506 367.5,152C 366.167,152.667 366.167,153.333 367.5,154C 364.252,154.082 361.919,155.582 360.5,158.5C 360.709,159.086 361.043,159.586 361.5,160C 359.833,161 358.167,162 356.5,163C 357.056,163.383 357.389,163.883 357.5,164.5C 357.167,165.167 356.833,165.833 356.5,166.5C 352.247,165.854 349.414,167.52 348,171.5C 347.667,171.167 347.333,170.833 347,170.5C 345.872,172.345 345.372,174.345 345.5,176.5C 344.167,178.5 342.5,180.167 340.5,181.5C 339.735,181.077 338.902,180.743 338,180.5C 336.477,182.354 334.644,183.854 332.5,185C 332.833,185.333 333.167,185.667 333.5,186C 330.36,187 329.027,189.167 329.5,192.5C 327.833,193.167 326.167,193.833 324.5,194.5C 324.649,195.552 324.483,196.552 324,197.5C 322.022,196.184 320.522,196.684 319.5,199C 320.167,199.333 320.833,199.667 321.5,200C 318.346,201.081 315.679,202.914 313.5,205.5C 313.833,206.167 314.167,206.833 314.5,207.5C 310.101,209.986 307.434,213.653 306.5,218.5C 305.198,217.643 303.865,217.143 302.5,217C 301.833,217.667 301.167,218.333 300.5,219C 301.138,220.707 301.138,222.54 300.5,224.5C 299.127,224.343 297.793,224.51 296.5,225C 297.167,225.333 297.833,225.667 298.5,226C 297.062,226.219 295.729,226.719 294.5,227.5C 293.81,229.465 293.143,231.798 292.5,234.5C 291.5,234.833 290.833,235.5 290.5,236.5C 289.85,236.196 289.183,235.863 288.5,235.5C 287.618,236.76 286.618,237.926 285.5,239C 285.833,239.333 286.167,239.667 286.5,240C 284.092,241.115 282.092,242.782 280.5,245C 280.833,245.333 281.167,245.667 281.5,246C 279.33,247.586 276.996,248.92 274.5,250C 277.051,251.516 276.718,252.349 273.5,252.5C 273.5,253.833 273.5,255.167 273.5,256.5C 272.448,256.351 271.448,256.517 270.5,257C 271.337,258.011 271.67,259.178 271.5,260.5C 270.5,260.833 269.833,261.5 269.5,262.5C 268.088,264.98 266.422,267.313 264.5,269.5C 263.094,269.973 262.427,270.973 262.5,272.5C 261.167,272.5 260.5,273.167 260.5,274.5C 259.448,274.351 258.448,274.517 257.5,275C 257.833,275.333 258.167,275.667 258.5,276C 254.56,277.45 252.893,280.284 253.5,284.5C 251.876,284.36 250.71,285.027 250,286.5C 249.667,286.167 249.333,285.833 249,285.5C 247.587,287.652 246.754,289.986 246.5,292.5C 244.014,293.244 242.014,294.744 240.5,297C 240.854,298.626 240.854,300.459 240.5,302.5C 240.5,303.833 239.833,304.5 238.5,304.5C 234.837,305.845 233.17,308.512 233.5,312.5C 232.551,314.777 231.218,316.777 229.5,318.5C 227.916,319.382 226.249,320.215 224.5,321C 225.634,322.016 225.301,322.683 223.5,323C 223.833,323.333 224.167,323.667 224.5,324C 222.893,325.049 222.227,326.549 222.5,328.5C 221.178,328.33 220.011,328.663 219,329.5C 218.027,331.392 217.36,333.392 217,335.5C 215.676,334.12 214.343,333.786 213,334.5C 213.39,337.731 213.224,341.065 212.5,344.5C 209.351,345.16 207.851,347.16 208,350.5C 207.667,350.167 207.333,349.833 207,349.5C 204.322,352.136 203.489,355.136 204.5,358.5C 202.712,358.215 201.045,358.548 199.5,359.5C 197.678,363.178 196.011,366.845 194.5,370.5C 192.182,372.088 191.515,374.088 192.5,376.5C 191.106,378.646 190.44,380.979 190.5,383.5C 188.405,388.027 186.072,392.361 183.5,396.5C 181.721,397.67 180.721,399.336 180.5,401.5C 180.5,401.833 180.5,402.167 180.5,402.5C 178.075,403.714 176.575,405.714 176,408.5C 175.346,407.304 174.846,407.304 174.5,408.5C 173.489,410.31 173.489,412.643 174.5,415.5C 174.5,416.167 174.167,416.5 173.5,416.5C 171.318,417.3 169.651,418.8 168.5,421C 169.833,422.84 169.666,423.34 168,422.5C 167.696,424.441 166.863,426.107 165.5,427.5C 165.833,428.167 166.167,428.833 166.5,429.5C 165.253,431.323 164.586,433.323 164.5,435.5C 164.5,435.833 164.5,436.167 164.5,436.5C 163.113,434.123 162.279,431.457 162,428.5C 161.586,428.957 161.086,429.291 160.5,429.5C 159.719,428.271 159.219,426.938 159,425.5C 158.329,424.748 157.496,424.414 156.5,424.5C 154.606,421.061 152.44,417.728 150,414.5C 148.872,412.655 148.372,410.655 148.5,408.5C 148.437,403.247 147.27,398.247 145,393.5C 141.862,391.239 139.362,388.406 137.5,385C 136.906,384.536 136.239,384.369 135.5,384.5C 134.833,384.5 134.5,384.167 134.5,383.5C 134.573,381.973 133.906,380.973 132.5,380.5C 132.5,380.167 132.5,379.833 132.5,379.5C 132.662,377.473 132.495,375.473 132,373.5C 129.441,371.048 127.941,368.048 127.5,364.5C 126.5,364.5 125.5,364.5 124.5,364.5C 120.592,358.356 116.925,352.023 113.5,345.5C 113.715,343.821 113.048,342.821 111.5,342.5C 104.209,330.092 97.2087,317.425 90.5,304.5C 90.3404,302.847 89.6737,301.514 88.5,300.5C 87.6618,300.158 87.3284,299.492 87.5,298.5C 87.573,296.973 86.9063,295.973 85.5,295.5C 84.596,294.791 84.2627,293.791 84.5,292.5C 84.646,289.446 83.3126,287.446 80.5,286.5C 82.4052,280.977 80.5719,277.31 75,275.5C 73.5053,273.89 73.3387,272.224 74.5,270.5C 72.8794,269.305 71.2128,268.305 69.5,267.5C 66.7563,264.354 64.7563,260.687 63.5,256.5C 65.4812,252.6 64.8145,249.267 61.5,246.5C 60.6858,244.234 60.1858,241.9 60,239.5C 58.3005,240.406 56.4672,240.739 54.5,240.5C 54.5,239.167 53.8333,238.5 52.5,238.5C 52.5,238.167 52.5,237.833 52.5,237.5C 52.7593,235.011 51.7593,233.344 49.5,232.5C 44.8386,224.512 40.1719,216.512 35.5,208.5C 35.7148,206.821 35.0481,205.821 33.5,205.5C 30.3765,201.586 28.0431,197.253 26.5,192.5C 27.5573,189.979 27.724,187.312 27,184.5C 26.6667,184.833 26.3333,185.167 26,185.5C 24.1852,184.756 22.3519,184.089 20.5,183.5C 18.3527,180.368 16.686,177.035 15.5,173.5C 14.5868,171.914 14.5868,170.414 15.5,169C 11.6584,166.103 8.65841,162.603 6.5,158.5C 6.16667,157.5 5.5,156.833 4.5,156.5C 4.5,156.167 4.5,155.833 4.5,155.5C 5.14947,153.523 5.14947,151.69 4.5,150C 4.83611,148.97 5.50278,148.47 6.5,148.5C 8.70281,148.604 10.7028,149.27 12.5,150.5C 13.9303,151.537 15.597,152.204 17.5,152.5C 19.7857,152.595 21.7857,153.262 23.5,154.5C 23.3894,156.648 24.056,156.981 25.5,155.5C 26.1667,156.5 26.8333,157.5 27.5,158.5C 29.9866,158.218 32.6533,158.218 35.5,158.5C 35.8333,158.5 36.1667,158.5 36.5,158.5C 37.287,160.104 38.6203,160.771 40.5,160.5C 40.8333,160.5 41.1667,160.5 41.5,160.5C 42.7017,162.392 44.035,164.226 45.5,166C 53.854,167.675 62.1873,169.175 70.5,170.5C 70.8333,170.5 71.1667,170.5 71.5,170.5C 72.7147,172.788 74.3813,173.455 76.5,172.5C 78.099,172.232 79.4324,172.566 80.5,173.5C 82.0304,176.021 84.3637,177.021 87.5,176.5C 89.4147,176.216 91.0813,176.549 92.5,177.5C 94.886,179.785 97.5527,181.785 100.5,183.5C 104.107,184.489 107.774,184.823 111.5,184.5C 111.833,184.5 112.167,184.5 112.5,184.5C 113.78,185.931 115.447,186.598 117.5,186.5C 117.833,186.5 118.167,186.5 118.5,186.5C 118.804,187.15 119.137,187.817 119.5,188.5C 116.232,189.487 112.898,189.82 109.5,189.5C 109.167,189.5 108.833,189.5 108.5,189.5C 103.36,188.512 98.0262,188.179 92.5,188.5C 92.2627,189.791 92.596,190.791 93.5,191.5C 93.5,191.833 93.5,192.167 93.5,192.5C 93.5,193.167 93.5,193.833 93.5,194.5C 93.4809,196.06 93.1476,197.56 92.5,199C 94.6978,203.365 98.0311,206.531 102.5,208.5C 102.833,209.5 103.5,210.167 104.5,210.5C 106.195,212.897 107.528,215.563 108.5,218.5C 109.68,220.693 110.68,223.026 111.5,225.5C 111.957,226.298 112.624,226.631 113.5,226.5C 113.167,228.5 112.833,230.5 112.5,232.5C 113.675,232.281 114.675,232.614 115.5,233.5C 116.162,237.151 118.162,239.484 121.5,240.5C 121.67,241.822 121.337,242.989 120.5,244C 121.766,244.309 122.933,244.809 124,245.5C 124.098,247.619 124.931,249.286 126.5,250.5C 127.484,253.428 127.817,256.428 127.5,259.5C 129.124,259.64 130.29,258.973 131,257.5C 131.383,258.056 131.883,258.389 132.5,258.5C 132.738,260.404 133.738,261.738 135.5,262.5C 136.674,263.514 137.34,264.847 137.5,266.5C 137.342,269.522 138.675,271.522 141.5,272.5C 141.427,274.027 142.094,275.027 143.5,275.5C 144.167,276.833 144.833,278.167 145.5,279.5C 146.535,281.205 146.535,282.872 145.5,284.5C 146.766,285.362 148.099,286.029 149.5,286.5C 150.32,288.812 151.153,291.146 152,293.5C 152.671,294.252 153.504,294.586 154.5,294.5C 155.546,298.084 156.379,301.75 157,305.5C 158.564,305.912 160.064,306.245 161.5,306.5C 162.833,306.5 163.5,305.833 163.5,304.5C 163.833,304.5 164.167,304.5 164.5,304.5C 166.043,301.86 168.71,299.693 172.5,298C 172.167,297.667 171.833,297.333 171.5,297C 173.946,294.767 175.28,291.933 175.5,288.5C 175.328,287.508 175.662,286.842 176.5,286.5C 178.587,285.415 179.92,283.749 180.5,281.5C 181.786,278.883 183.453,276.55 185.5,274.5C 186.5,274.167 187.167,273.5 187.5,272.5C 188.512,271.128 189.512,269.795 190.5,268.5C 191.5,268.167 192.167,267.5 192.5,266.5C 194.587,265.415 195.92,263.749 196.5,261.5C 198.587,260.415 199.92,258.749 200.5,256.5C 204.132,251.866 208.132,247.533 212.5,243.5C 213.833,242.833 214.833,241.833 215.5,240.5C 216.402,238.659 217.736,237.326 219.5,236.5C 221.581,235.28 223.581,234.614 225.5,234.5C 227.5,231.133 229.5,227.8 231.5,224.5C 232.847,223.829 234.014,223.829 235,224.5C 236.119,223.448 236.619,222.281 236.5,221C 237.938,220.781 239.271,220.281 240.5,219.5C 240.579,217.872 240.912,216.205 241.5,214.5C 241.81,212.856 242.81,211.856 244.5,211.5C 245.833,210.833 246.833,209.833 247.5,208.5C 249.527,205.806 251.861,203.473 254.5,201.5C 255.995,201.585 256.995,200.919 257.5,199.5C 250.275,198.058 243.275,198.391 236.5,200.5C 236.167,200.5 235.833,200.5 235.5,200.5C 231.818,200.335 228.152,200.501 224.5,201C 222.24,201.549 220.574,202.716 219.5,204.5C 218.833,204.5 218.167,204.5 217.5,204.5C 213.834,204.512 210.834,205.846 208.5,208.5C 208.167,208.5 207.833,208.5 207.5,208.5C 205.167,208.5 202.833,208.5 200.5,208.5C 200.473,210.199 199.806,211.533 198.5,212.5C 198.167,212.5 197.833,212.5 197.5,212.5C 195.208,212.756 193.041,212.423 191,211.5C 185.534,215.612 179.7,218.112 173.5,219C 174.641,219.741 174.641,220.575 173.5,221.5C 171.711,223.033 169.711,224.033 167.5,224.5C 167.5,225.5 167.5,226.5 167.5,227.5C 166.791,228.404 165.791,228.737 164.5,228.5C 157.925,228.333 157.259,226.666 162.5,223.5C 163.946,221.382 164.613,219.049 164.5,216.5C 166.914,215.089 168.581,213.089 169.5,210.5C 171.146,207.19 173.48,204.523 176.5,202.5C 179.766,200.741 183.099,199.074 186.5,197.5C 185.642,196.034 185.642,193.701 186.5,190.5C 187.458,190.047 188.292,189.381 189,188.5C 189.535,190.271 190.369,190.604 191.5,189.5C 192.282,186.924 193.782,184.924 196,183.5C 196.494,181.866 196.66,180.199 196.5,178.5C 196.833,177.5 197.5,176.833 198.5,176.5C 199.496,176.586 200.329,176.252 201,175.5C 201.667,176.167 202.333,176.833 203,177.5C 203.311,175.444 203.811,173.444 204.5,171.5C 209.494,169.509 212.16,165.842 212.5,160.5C 212.833,160.5 213.167,160.5 213.5,160.5C 215.288,160.785 216.955,160.452 218.5,159.5C 219.145,157.568 220.479,156.401 222.5,156C 222.167,155.667 221.833,155.333 221.5,155C 222.191,153.933 222.691,152.766 223,151.5C 223.333,151.833 223.667,152.167 224,152.5C 224.49,151.207 224.657,149.873 224.5,148.5C 225.5,148.167 226.167,147.5 226.5,146.5C 227.5,146.167 228.167,145.5 228.5,144.5C 233.5,138.833 238.833,133.5 244.5,128.5C 245.5,128.167 246.167,127.5 246.5,126.5C 247.5,126.167 248.167,125.5 248.5,124.5C 251.274,123.277 253.941,121.777 256.5,120C 256.619,118.855 256.952,117.688 257.5,116.5C 258.5,114.833 259.833,113.5 261.5,112.5C 263.749,111.92 265.415,110.587 266.5,108.5C 269.165,104.839 272.498,101.839 276.5,99.5C 277.833,98.8333 278.833,97.8333 279.5,96.5C 282.063,96.2687 283.73,94.9354 284.5,92.5C 285.873,92.6567 287.207,92.49 288.5,92C 288.167,91.6667 287.833,91.3333 287.5,91C 289.424,89.2502 291.091,87.4169 292.5,85.5C 293.496,85.5858 294.329,85.2524 295,84.5C 297.734,87.2926 298.734,86.9593 298,83.5C 300.035,80.6954 302.535,79.3621 305.5,79.5C 307.334,77.5017 308.334,75.1684 308.5,72.5C 308.973,71.0937 309.973,70.427 311.5,70.5C 314.689,69.4106 317.022,67.4106 318.5,64.5C 320.246,62.7484 322.246,61.4151 324.5,60.5C 325.873,60.6567 327.207,60.49 328.5,60C 329.813,57.6742 331.813,56.3408 334.5,56C 334.167,55.6667 333.833,55.3333 333.5,55C 334.381,54.2917 335.047,53.4584 335.5,52.5C 337.795,51.8645 339.461,50.5311 340.5,48.5C 342.604,48.7989 344.604,48.4656 346.5,47.5C 346.833,45.8333 347.833,44.8333 349.5,44.5C 355.199,46.1346 357.199,44.1346 355.5,38.5C 357.749,37.9202 359.415,36.5869 360.5,34.5C 362.027,34.573 363.027,33.9063 363.5,32.5 Z"/></g>
<g><path style="opacity:1" fill="#ccc2d6" d="M 382.5,36.5 C 378.467,40.8679 374.134,44.8679 369.5,48.5C 370.684,47.3121 370.684,46.1455 369.5,45C 371.923,44.3029 373.589,42.8029 374.5,40.5C 375.552,40.6495 376.552,40.4828 377.5,40C 377.167,39.6667 376.833,39.3333 376.5,39C 377.667,38.5 378.5,37.6667 379,36.5C 380.145,37.6843 381.312,37.6843 382.5,36.5 Z"/></g>
<g><path style="opacity:1" fill="#eee7f3" d="M 355.5,38.5 C 357.199,44.1346 355.199,46.1346 349.5,44.5C 347.833,44.8333 346.833,45.8333 346.5,47.5C 344.604,48.4656 342.604,48.7989 340.5,48.5C 344.976,44.4254 349.976,41.0921 355.5,38.5 Z"/></g>
<g><path style="opacity:0.859" fill="#ccbed7" d="M 340.5,48.5 C 339.461,50.5311 337.795,51.8645 335.5,52.5C 336.579,50.457 338.246,49.1237 340.5,48.5 Z"/></g>
<g><path style="opacity:1" fill="#e2d9e9" d="M 369.5,48.5 C 367.1,51.9031 364.1,54.5698 360.5,56.5C 359.047,55.1751 359.381,54.3418 361.5,54C 360.359,53.2588 360.359,52.4255 361.5,51.5C 363.796,49.4477 366.463,48.4477 369.5,48.5 Z"/></g>
<g><path style="opacity:1" fill="#d6c9e1" d="M 360.5,56.5 C 360.19,58.1436 359.19,59.1436 357.5,59.5C 357.586,58.5041 357.252,57.6708 356.5,57C 357.793,56.51 359.127,56.3433 360.5,56.5 Z"/></g>
<g><path style="opacity:1" fill="#e0d4e7" d="M 335.5,52.5 C 335.047,53.4584 334.381,54.2917 333.5,55C 333.833,55.3333 334.167,55.6667 334.5,56C 331.813,56.3408 329.813,57.6742 328.5,60C 327.207,60.49 325.873,60.6567 324.5,60.5C 327.553,57.1322 331.219,54.4655 335.5,52.5 Z"/></g>
<g><path style="opacity:0.035" fill="#746e85" d="M 353.5,62.5 C 354.167,62.5 354.833,62.5 355.5,62.5C 355.027,63.9063 354.027,64.573 352.5,64.5C 352.833,63.8333 353.167,63.1667 353.5,62.5 Z"/></g>
<g><path style="opacity:1" fill="#e0d7e7" d="M 353.5,62.5 C 353.167,63.1667 352.833,63.8333 352.5,64.5C 350.833,66.8333 348.833,68.8333 346.5,70.5C 345.215,68.1451 345.215,66.3118 346.5,65C 348.848,64.6541 350.681,63.4875 352,61.5C 352.383,62.056 352.883,62.3893 353.5,62.5 Z"/></g>
<g><path style="opacity:0.467" fill="#b4aac3" d="M 318.5,64.5 C 317.022,67.4106 314.689,69.4106 311.5,70.5C 313.173,67.8334 315.507,65.8334 318.5,64.5 Z"/></g>
<g><path style="opacity:1" fill="#d2c7db" d="M 346.5,70.5 C 344.167,73.5 341.5,76.1667 338.5,78.5C 338.67,77.1779 338.337,76.0113 337.5,75C 339.976,72.4289 342.976,70.9289 346.5,70.5 Z"/></g>
<g><path style="opacity:1" fill="#e9e0ef" d="M 308.5,72.5 C 308.334,75.1684 307.334,77.5017 305.5,79.5C 302.535,79.3621 300.035,80.6954 298,83.5C 298.734,86.9593 297.734,87.2926 295,84.5C 294.329,85.2524 293.496,85.5858 292.5,85.5C 297.427,80.6983 302.76,76.365 308.5,72.5 Z"/></g>
<g><path style="opacity:1" fill="#d8cedf" d="M 338.5,78.5 C 336.167,81.5 333.5,84.1667 330.5,86.5C 330.455,81.2114 333.122,78.5448 338.5,78.5 Z"/></g>
<g><path style="opacity:0.455" fill="#c0b4cd" d="M 292.5,85.5 C 291.091,87.4169 289.424,89.2502 287.5,91C 287.833,91.3333 288.167,91.6667 288.5,92C 287.207,92.49 285.873,92.6567 284.5,92.5C 286.503,89.5025 289.17,87.1691 292.5,85.5 Z"/></g>
<g><path style="opacity:1" fill="#d4cddd" d="M 330.5,86.5 C 327.471,89.859 324.471,93.1924 321.5,96.5C 321.67,95.1779 321.337,94.0113 320.5,93C 323.072,89.645 326.405,87.4784 330.5,86.5 Z"/></g>
<g><path style="opacity:0.792" fill="#ccbddd" d="M 284.5,92.5 C 283.73,94.9354 282.063,96.2687 279.5,96.5C 280.873,94.7935 282.539,93.4602 284.5,92.5 Z"/></g>
<g><path style="opacity:0.765" fill="#989697" d="M 279.5,96.5 C 278.833,97.8333 277.833,98.8333 276.5,99.5C 276.5,97.5 277.5,96.5 279.5,96.5 Z"/></g>
<g><path style="opacity:1" fill="#dbd1e2" d="M 320.5,96.5 C 316.845,101.486 312.845,106.153 308.5,110.5C 308.854,108.459 308.854,106.626 308.5,105C 309.784,104.316 310.951,104.483 312,105.5C 312.643,102.299 314.476,99.7991 317.5,98C 317.167,97.6667 316.833,97.3333 316.5,97C 317.793,96.51 319.127,96.3433 320.5,96.5 Z"/></g>
<g><path style="opacity:1" fill="#dfd3e6" d="M 410.5,118.5 C 410.67,117.178 410.337,116.011 409.5,115C 410.308,114.692 410.975,114.192 411.5,113.5C 408.232,112.513 404.898,112.18 401.5,112.5C 407.602,110.621 413.935,109.287 420.5,108.5C 420.649,109.552 420.483,110.552 420,111.5C 416.537,113.476 413.37,115.81 410.5,118.5 Z"/></g>
<g><path style="opacity:0.839" fill="#c1b3d4" d="M 266.5,108.5 C 265.415,110.587 263.749,111.92 261.5,112.5C 262.585,110.413 264.251,109.08 266.5,108.5 Z"/></g>
<g><path style="opacity:0.925" fill="#a099ac" d="M 398.5,112.5 C 395.781,113.913 392.781,114.58 389.5,114.5C 392.219,113.087 395.219,112.42 398.5,112.5 Z"/></g>
<g><path style="opacity:0.824" fill="#b2a3c4" d="M 388.5,114.5 C 386.485,115.924 384.152,116.59 381.5,116.5C 383.515,115.076 385.848,114.41 388.5,114.5 Z"/></g>
<g><path style="opacity:0.976" fill="#b6aac1" d="M 380.5,116.5 C 378.095,117.768 375.428,118.435 372.5,118.5C 374.838,116.96 377.505,116.294 380.5,116.5 Z"/></g>
<g><path style="opacity:1" fill="#dad0e2" d="M 306.5,112.5 C 303.915,117.091 300.915,121.424 297.5,125.5C 296.833,125.833 296.167,126.167 295.5,126.5C 295.297,124.61 295.963,123.11 297.5,122C 297.167,121.667 296.833,121.333 296.5,121C 297.9,119.562 299.567,118.729 301.5,118.5C 301.227,116.549 301.893,115.049 303.5,114C 303.167,113.667 302.833,113.333 302.5,113C 303.793,112.51 305.127,112.343 306.5,112.5 Z"/></g>
<g><path style="opacity:1" fill="#d1c8db" d="M 257.5,116.5 C 256.952,117.688 256.619,118.855 256.5,120C 253.941,121.777 251.274,123.277 248.5,124.5C 251.197,121.468 254.197,118.802 257.5,116.5 Z"/></g>
<g><path style="opacity:0.992" fill="#bbb0ce" d="M 372.5,118.5 C 370.095,119.768 367.428,120.435 364.5,120.5C 366.838,118.96 369.505,118.294 372.5,118.5 Z"/></g>
<g><path style="opacity:0.992" fill="#b9abc6" d="M 364.5,120.5 C 362.095,121.768 359.428,122.435 356.5,122.5C 358.838,120.96 361.505,120.294 364.5,120.5 Z"/></g>
<g><path style="opacity:0.008" fill="#736586" d="M 407.5,120.5 C 407.5,121.833 406.833,122.5 405.5,122.5C 405.833,121.5 406.5,120.833 407.5,120.5 Z"/></g>
<g><path style="opacity:0.969" fill="#ccbfdb" d="M 356.5,122.5 C 354.485,123.924 352.152,124.59 349.5,124.5C 351.515,123.076 353.848,122.41 356.5,122.5 Z"/></g>
<g><path style="opacity:0.059" fill="#7b708c" d="M 248.5,124.5 C 248.167,125.5 247.5,126.167 246.5,126.5C 246.5,125.167 247.167,124.5 248.5,124.5 Z"/></g>
<g><path style="opacity:1" fill="#a79eb7" d="M 348.5,124.5 C 346.162,126.04 343.495,126.706 340.5,126.5C 342.838,124.96 345.505,124.294 348.5,124.5 Z"/></g>
<g><path style="opacity:1" fill="#dcd5e5" d="M 409.5,118.5 C 409.5,119.833 408.833,120.5 407.5,120.5C 406.5,120.833 405.833,121.5 405.5,122.5C 403.404,125.262 400.738,127.262 397.5,128.5C 397.586,127.504 397.252,126.671 396.5,126C 398.714,124.727 401.047,123.727 403.5,123C 403.043,122.586 402.709,122.086 402.5,121.5C 404.297,119.248 406.63,118.248 409.5,118.5 Z"/></g>
<g><path style="opacity:0.098" fill="#807692" d="M 246.5,126.5 C 246.167,127.5 245.5,128.167 244.5,128.5C 244.5,127.167 245.167,126.5 246.5,126.5 Z"/></g>
<g><path style="opacity:0.043" fill="#766a83" d="M 297.5,125.5 C 297.573,127.027 296.906,128.027 295.5,128.5C 295.5,127.833 295.5,127.167 295.5,126.5C 296.167,126.167 296.833,125.833 297.5,125.5 Z"/></g>
<g><path style="opacity:1" fill="#b3aec0" d="M 334.5,128.5 C 332.898,130.074 330.898,130.741 328.5,130.5C 330.102,128.926 332.102,128.259 334.5,128.5 Z"/></g>
<g><path style="opacity:0.984" fill="#d3c5dd" d="M 397.5,128.5 C 395.451,131.55 392.784,133.883 389.5,135.5C 390.713,133.272 392.38,131.272 394.5,129.5C 395.325,128.614 396.325,128.281 397.5,128.5 Z"/></g>
<g><path style="opacity:1" fill="#bbb3d0" d="M 328.5,130.5 C 326.898,132.074 324.898,132.741 322.5,132.5C 324.102,130.926 326.102,130.259 328.5,130.5 Z"/></g>
<g><path style="opacity:1" fill="#ddd3e3" d="M 322.5,132.5 C 321.126,135.355 318.793,136.855 315.5,137C 315.833,137.333 316.167,137.667 316.5,138C 311.36,138.179 306.36,139.012 301.5,140.5C 301.611,139.883 301.944,139.383 302.5,139C 309.11,136.521 315.777,134.355 322.5,132.5 Z"/></g>
<g><path style="opacity:0.09" fill="#7f7590" d="M 291.5,135.5 C 291.34,137.153 290.674,138.486 289.5,139.5C 289.229,137.62 289.896,136.287 291.5,135.5 Z"/></g>
<g><path style="opacity:1" fill="#e3daea" d="M 387.5,137.5 C 384.93,139.614 382.597,141.947 380.5,144.5C 379.167,138.5 381.5,136.167 387.5,137.5 Z"/></g>
<g><path style="opacity:0.176" fill="#8c898e" d="M 288.5,142.5 C 288.5,143.833 289.167,144.5 290.5,144.5C 289.791,145.404 288.791,145.737 287.5,145.5C 287.263,144.209 287.596,143.209 288.5,142.5 Z"/></g>
<g><path style="opacity:0.153" fill="#8a8099" d="M 228.5,144.5 C 228.167,145.5 227.5,146.167 226.5,146.5C 226.5,145.167 227.167,144.5 228.5,144.5 Z"/></g>
<g><path style="opacity:0.129" fill="#847997" d="M 226.5,146.5 C 226.167,147.5 225.5,148.167 224.5,148.5C 224.5,147.167 225.167,146.5 226.5,146.5 Z"/></g>
<g><path style="opacity:0.016" fill="#726582" d="M 377.5,146.5 C 377.5,147.833 376.833,148.5 375.5,148.5C 375.833,147.5 376.5,146.833 377.5,146.5 Z"/></g>
<g><path style="opacity:1" fill="#dacce5" d="M -0.5,146.5 C 2.22817,146.171 4.5615,146.837 6.5,148.5C 5.50278,148.47 4.83611,148.97 4.5,150C 5.14947,151.69 5.14947,153.523 4.5,155.5C 2.58793,153.343 0.921263,151.009 -0.5,148.5C -0.5,147.833 -0.5,147.167 -0.5,146.5 Z"/></g>
<g><path style="opacity:0.008" fill="#847a97" d="M 12.5,150.5 C 14.698,150.12 16.3646,150.787 17.5,152.5C 15.597,152.204 13.9303,151.537 12.5,150.5 Z"/></g>
<g><path style="opacity:1" fill="#ded5e6" d="M 372.5,151.5 C 367.801,156.2 362.801,160.534 357.5,164.5C 357.389,163.883 357.056,163.383 356.5,163C 358.167,162 359.833,161 361.5,160C 361.043,159.586 360.709,159.086 360.5,158.5C 361.919,155.582 364.252,154.082 367.5,154C 366.167,153.333 366.167,152.667 367.5,152C 369.134,151.506 370.801,151.34 372.5,151.5 Z"/></g>
<g><path style="opacity:1" fill="#d0c7da" d="M 23.5,154.5 C 27.7866,155.232 31.7866,156.565 35.5,158.5C 32.6533,158.218 29.9866,158.218 27.5,158.5C 26.8333,157.5 26.1667,156.5 25.5,155.5C 24.056,156.981 23.3894,156.648 23.5,154.5 Z"/></g>
<g><path style="opacity:0.031" fill="#70687e" d="M 4.5,156.5 C 5.5,156.833 6.16667,157.5 6.5,158.5C 5.16667,158.5 4.5,157.833 4.5,156.5 Z"/></g>
<g><path style="opacity:0.612" fill="#c1acd2" d="M 36.5,158.5 C 38.153,158.66 39.4863,159.326 40.5,160.5C 38.6203,160.771 37.287,160.104 36.5,158.5 Z"/></g>
<g><path style="opacity:1" fill="#ebe4f1" d="M 224.5,148.5 C 224.657,149.873 224.49,151.207 224,152.5C 223.667,152.167 223.333,151.833 223,151.5C 222.691,152.766 222.191,153.933 221.5,155C 221.833,155.333 222.167,155.667 222.5,156C 220.479,156.401 219.145,157.568 218.5,159.5C 216.955,160.452 215.288,160.785 213.5,160.5C 216.436,155.895 220.102,151.895 224.5,148.5 Z"/></g>
<g><path style="opacity:1" fill="#efe6f3" d="M 41.5,160.5 C 42.1667,160.5 42.8333,160.5 43.5,160.5C 45.5128,163.738 48.5128,165.071 52.5,164.5C 55.221,164.963 57.8877,165.629 60.5,166.5C 61.287,168.104 62.6203,168.771 64.5,168.5C 66.8984,168.259 68.8984,168.926 70.5,170.5C 62.1873,169.175 53.854,167.675 45.5,166C 44.035,164.226 42.7017,162.392 41.5,160.5 Z"/></g>
<g><path style="opacity:1" fill="#bcb1c9" d="M 43.5,160.5 C 46.8197,161.393 49.8197,162.727 52.5,164.5C 48.5128,165.071 45.5128,163.738 43.5,160.5 Z"/></g>
<g><path style="opacity:1" fill="#d6cbe0" d="M 6.5,158.5 C 8.65841,162.603 11.6584,166.103 15.5,169C 14.5868,170.414 14.5868,171.914 15.5,173.5C 11.3151,169.292 8.31507,164.292 6.5,158.5 Z"/></g>
<g><path style="opacity:0.188" fill="#8e829e" d="M 209.5,164.5 C 209.167,165.5 208.5,166.167 207.5,166.5C 207.5,165.167 208.167,164.5 209.5,164.5 Z"/></g>
<g><path style="opacity:0.42" fill="#a99bbd" d="M 60.5,166.5 C 62.153,166.66 63.4863,167.326 64.5,168.5C 62.6203,168.771 61.287,168.104 60.5,166.5 Z"/></g>
<g><path style="opacity:1" fill="#e3daeb" d="M 356.5,166.5 C 352.813,169.855 349.147,173.189 345.5,176.5C 345.372,174.345 345.872,172.345 347,170.5C 347.333,170.833 347.667,171.167 348,171.5C 349.414,167.52 352.247,165.854 356.5,166.5 Z"/></g>
<g><path style="opacity:1" fill="#c1b7cb" d="M 71.5,170.5 C 73.5529,170.402 75.2196,171.069 76.5,172.5C 74.3813,173.455 72.7147,172.788 71.5,170.5 Z"/></g>
<g><path style="opacity:1" fill="#cfc4db" d="M 80.5,173.5 C 83.0631,174.088 85.3964,175.088 87.5,176.5C 84.3637,177.021 82.0304,176.021 80.5,173.5 Z"/></g>
<g><path style="opacity:1" fill="#e8e1ee" d="M 212.5,160.5 C 212.16,165.842 209.494,169.509 204.5,171.5C 203.811,173.444 203.311,175.444 203,177.5C 202.333,176.833 201.667,176.167 201,175.5C 200.329,176.252 199.496,176.586 198.5,176.5C 201.041,172.748 204.041,169.415 207.5,166.5C 208.5,166.167 209.167,165.5 209.5,164.5C 210.122,162.878 211.122,161.545 212.5,160.5 Z"/></g>
<g><path style="opacity:1" fill="#e1d7e8" d="M 92.5,177.5 C 98.9963,179.662 105.33,181.996 111.5,184.5C 107.774,184.823 104.107,184.489 100.5,183.5C 97.5527,181.785 94.886,179.785 92.5,177.5 Z"/></g>
<g><path style="opacity:1" fill="#e7dfee" d="M 340.5,181.5 C 337.119,185.548 333.452,189.215 329.5,192.5C 329.027,189.167 330.36,187 333.5,186C 333.167,185.667 332.833,185.333 332.5,185C 334.644,183.854 336.477,182.354 338,180.5C 338.902,180.743 339.735,181.077 340.5,181.5 Z"/></g>
<g><path style="opacity:1" fill="#e0d8e7" d="M 20.5,183.5 C 22.3519,184.089 24.1852,184.756 26,185.5C 26.3333,185.167 26.6667,184.833 27,184.5C 27.724,187.312 27.5573,189.979 26.5,192.5C 24.2549,189.68 22.2549,186.68 20.5,183.5 Z"/></g>
<g><path style="opacity:0.808" fill="#a79bb0" d="M 112.5,184.5 C 114.553,184.402 116.22,185.069 117.5,186.5C 115.447,186.598 113.78,185.931 112.5,184.5 Z"/></g>
<g><path style="opacity:0.076" fill="#9d8eb3" d="M 108.5,189.5 C 103.056,188.892 98.0557,189.558 93.5,191.5C 92.596,190.791 92.2627,189.791 92.5,188.5C 98.0262,188.179 103.36,188.512 108.5,189.5 Z"/></g>
<g><path style="opacity:1" fill="#c8b9d6" d="M 118.5,186.5 C 121.917,187.045 124.917,188.378 127.5,190.5C 126.5,190.833 125.5,191.167 124.5,191.5C 119.332,190.993 114.332,190.327 109.5,189.5C 112.898,189.82 116.232,189.487 119.5,188.5C 119.137,187.817 118.804,187.15 118.5,186.5 Z"/></g>
<g><path style="opacity:1" fill="#e7e0ed" d="M 196.5,178.5 C 196.66,180.199 196.494,181.866 196,183.5C 193.782,184.924 192.282,186.924 191.5,189.5C 190.369,190.604 189.535,190.271 189,188.5C 188.292,189.381 187.458,190.047 186.5,190.5C 189.359,186.122 192.692,182.122 196.5,178.5 Z"/></g>
<g><path style="opacity:0.153" fill="#94889d" d="M 93.5,192.5 C 94.9063,192.973 95.573,193.973 95.5,195.5C 94.8333,195.167 94.1667,194.833 93.5,194.5C 93.5,193.833 93.5,193.167 93.5,192.5 Z"/></g>
<g><path style="opacity:1" fill="#ede8f2" d="M 186.5,190.5 C 185.642,193.701 185.642,196.034 186.5,197.5C 183.099,199.074 179.766,200.741 176.5,202.5C 178.893,197.712 182.226,193.712 186.5,190.5 Z"/></g>
<g><path style="opacity:0.165" fill="#a499b2" d="M 254.5,201.5 C 254.611,200.883 254.944,200.383 255.5,200C 249.155,199.556 242.822,199.723 236.5,200.5C 243.275,198.391 250.275,198.058 257.5,199.5C 256.995,200.919 255.995,201.585 254.5,201.5 Z"/></g>
<g><path style="opacity:1" fill="#dacfe4" d="M 235.5,200.5 C 230.385,202.25 225.051,203.584 219.5,204.5C 220.574,202.716 222.24,201.549 224.5,201C 228.152,200.501 231.818,200.335 235.5,200.5 Z"/></g>
<g><path style="opacity:1" fill="#f2eaf4" d="M 93.5,194.5 C 94.1667,194.833 94.8333,195.167 95.5,195.5C 98.6235,199.414 100.957,203.747 102.5,208.5C 98.0311,206.531 94.6978,203.365 92.5,199C 93.1476,197.56 93.4809,196.06 93.5,194.5 Z"/></g>
<g><path style="opacity:1" fill="#e1d8e7" d="M 217.5,204.5 C 216.833,205.167 216.167,205.833 215.5,206.5C 213.254,207.455 210.921,208.122 208.5,208.5C 210.834,205.846 213.834,204.512 217.5,204.5 Z"/></g>
<g><path style="opacity:0.882" fill="#b2a8bd" d="M 33.5,205.5 C 35.0481,205.821 35.7148,206.821 35.5,208.5C 34.5987,207.71 33.9321,206.71 33.5,205.5 Z"/></g>
<g><path style="opacity:0.027" fill="#7d6e8b" d="M 217.5,204.5 C 218.167,204.5 218.833,204.5 219.5,204.5C 218.713,206.104 217.38,206.771 215.5,206.5C 216.167,205.833 216.833,205.167 217.5,204.5 Z"/></g>
<g><path style="opacity:0.027" fill="#6f667c" d="M 102.5,208.5 C 103.833,208.5 104.5,209.167 104.5,210.5C 103.5,210.167 102.833,209.5 102.5,208.5 Z"/></g>
<g><path style="opacity:1" fill="#d4c9dc" d="M 207.5,208.5 C 204.697,210.215 201.697,211.548 198.5,212.5C 199.806,211.533 200.473,210.199 200.5,208.5C 202.833,208.5 205.167,208.5 207.5,208.5 Z"/></g>
<g><path style="opacity:0.741" fill="#8f8d92" d="M 247.5,208.5 C 246.833,209.833 245.833,210.833 244.5,211.5C 244.5,209.5 245.5,208.5 247.5,208.5 Z"/></g>
<g><path style="opacity:1" fill="#ddd3e5" d="M 329.5,192.5 C 321.831,201.176 314.164,209.842 306.5,218.5C 307.434,213.653 310.101,209.986 314.5,207.5C 314.167,206.833 313.833,206.167 313.5,205.5C 315.679,202.914 318.346,201.081 321.5,200C 320.833,199.667 320.167,199.333 319.5,199C 320.522,196.684 322.022,196.184 324,197.5C 324.483,196.552 324.649,195.552 324.5,194.5C 326.167,193.833 327.833,193.167 329.5,192.5 Z"/></g>
<g><path style="opacity:0.882" fill="#a69cb6" d="M 169.5,210.5 C 168.581,213.089 166.914,215.089 164.5,216.5C 165.419,213.911 167.086,211.911 169.5,210.5 Z"/></g>
<g><path style="opacity:1" fill="#dfd7e6" d="M 241.5,214.5 C 240.912,216.205 240.579,217.872 240.5,219.5C 239.271,220.281 237.938,220.781 236.5,221C 236.619,222.281 236.119,223.448 235,224.5C 234.014,223.829 232.847,223.829 231.5,224.5C 233.954,220.23 237.288,216.896 241.5,214.5 Z"/></g>
<g><path style="opacity:1" fill="#e3d9e9" d="M 197.5,212.5 C 194.943,214.607 191.943,215.941 188.5,216.5C 186.973,216.427 185.973,217.094 185.5,218.5C 179.535,221.493 173.535,224.493 167.5,227.5C 167.5,226.5 167.5,225.5 167.5,224.5C 169.711,224.033 171.711,223.033 173.5,221.5C 174.641,220.575 174.641,219.741 173.5,219C 179.7,218.112 185.534,215.612 191,211.5C 193.041,212.423 195.208,212.756 197.5,212.5 Z"/></g>
<g><path style="opacity:0.027" fill="#8f839d" d="M 188.5,216.5 C 188.027,217.906 187.027,218.573 185.5,218.5C 185.973,217.094 186.973,216.427 188.5,216.5 Z"/></g>
<g><path style="opacity:1" fill="#e2dbe9" d="M 306.5,218.5 C 304.923,221.05 302.923,223.05 300.5,224.5C 301.138,222.54 301.138,220.707 300.5,219C 301.167,218.333 301.833,217.667 302.5,217C 303.865,217.143 305.198,217.643 306.5,218.5 Z"/></g>
<g><path style="opacity:0.051" fill="#80738f" d="M 161.5,220.5 C 161.167,221.5 160.5,222.167 159.5,222.5C 159.5,221.167 160.167,220.5 161.5,220.5 Z"/></g>
<g><path style="opacity:1" fill="#e5daec" d="M 164.5,216.5 C 164.613,219.049 163.946,221.382 162.5,223.5C 157.259,226.666 157.925,228.333 164.5,228.5C 146.891,240.255 145.224,238.255 159.5,222.5C 160.5,222.167 161.167,221.5 161.5,220.5C 162.512,219.128 163.512,217.795 164.5,216.5 Z"/></g>
<g><path style="opacity:1" fill="#c4b9cf" d="M 108.5,218.5 C 110.897,220.662 112.564,223.329 113.5,226.5C 112.624,226.631 111.957,226.298 111.5,225.5C 110.68,223.026 109.68,220.693 108.5,218.5 Z"/></g>
<g><path style="opacity:1" fill="#d8d0e3" d="M 300.5,224.5 C 298.556,228.441 295.889,231.774 292.5,234.5C 293.143,231.798 293.81,229.465 294.5,227.5C 295.729,226.719 297.062,226.219 298.5,226C 297.833,225.667 297.167,225.333 296.5,225C 297.793,224.51 299.127,224.343 300.5,224.5 Z"/></g>
<g><path style="opacity:1" fill="#e4dcea" d="M 231.5,224.5 C 229.5,227.8 227.5,231.133 225.5,234.5C 223.581,234.614 221.581,235.28 219.5,236.5C 222.882,231.785 226.882,227.785 231.5,224.5 Z"/></g>
<g><path style="opacity:1" fill="#c2b5d0" d="M 49.5,232.5 C 51.7593,233.344 52.7593,235.011 52.5,237.5C 51.1103,236.101 50.1103,234.434 49.5,232.5 Z"/></g>
<g><path style="opacity:0.012" fill="#7d718d" d="M 292.5,234.5 C 292.5,235.833 291.833,236.5 290.5,236.5C 290.833,235.5 291.5,234.833 292.5,234.5 Z"/></g>
<g><path style="opacity:1" fill="#e7dced" d="M 113.5,226.5 C 116.559,230.904 119.225,235.571 121.5,240.5C 118.162,239.484 116.162,237.151 115.5,233.5C 114.675,232.614 113.675,232.281 112.5,232.5C 112.833,230.5 113.167,228.5 113.5,226.5 Z"/></g>
<g><path style="opacity:0.941" fill="#a19ba5" d="M 52.5,238.5 C 53.8333,238.5 54.5,239.167 54.5,240.5C 54.5,240.833 54.5,241.167 54.5,241.5C 53.5987,240.71 52.9321,239.71 52.5,238.5 Z"/></g>
<g><path style="opacity:1" fill="#eee7f1" d="M 63.5,256.5 C 59.7601,252.033 56.7601,247.033 54.5,241.5C 54.5,241.167 54.5,240.833 54.5,240.5C 56.4672,240.739 58.3005,240.406 60,239.5C 60.1858,241.9 60.6858,244.234 61.5,246.5C 64.8145,249.267 65.4812,252.6 63.5,256.5 Z"/></g>
<g><path style="opacity:0.631" fill="#7d7b80" d="M 215.5,240.5 C 214.833,241.833 213.833,242.833 212.5,243.5C 212.5,241.5 213.5,240.5 215.5,240.5 Z"/></g>
<g><path style="opacity:1" fill="#ddd5e4" d="M 290.5,236.5 C 284.156,244.539 277.822,252.539 271.5,260.5C 271.67,259.178 271.337,258.011 270.5,257C 271.448,256.517 272.448,256.351 273.5,256.5C 273.5,255.167 273.5,253.833 273.5,252.5C 276.718,252.349 277.051,251.516 274.5,250C 276.996,248.92 279.33,247.586 281.5,246C 281.167,245.667 280.833,245.333 280.5,245C 282.092,242.782 284.092,241.115 286.5,240C 286.167,239.667 285.833,239.333 285.5,239C 286.618,237.926 287.618,236.76 288.5,235.5C 289.183,235.863 289.85,236.196 290.5,236.5 Z"/></g>
<g><path style="opacity:1" fill="#e8e1ed" d="M 121.5,240.5 C 125.953,245.967 129.619,251.967 132.5,258.5C 131.883,258.389 131.383,258.056 131,257.5C 130.29,258.973 129.124,259.64 127.5,259.5C 127.817,256.428 127.484,253.428 126.5,250.5C 124.931,249.286 124.098,247.619 124,245.5C 122.933,244.809 121.766,244.309 120.5,244C 121.337,242.989 121.67,241.822 121.5,240.5 Z"/></g>
<g><path style="opacity:0.749" fill="#8c879b" d="M 200.5,256.5 C 199.92,258.749 198.587,260.415 196.5,261.5C 197.08,259.251 198.413,257.585 200.5,256.5 Z"/></g>
<g><path style="opacity:0.439" fill="#ab9fbd" d="M 132.5,258.5 C 134.262,259.262 135.262,260.596 135.5,262.5C 133.738,261.738 132.738,260.404 132.5,258.5 Z"/></g>
<g><path style="opacity:0.008" fill="#7a708e" d="M 271.5,260.5 C 271.5,261.833 270.833,262.5 269.5,262.5C 269.833,261.5 270.5,260.833 271.5,260.5 Z"/></g>
<g><path style="opacity:0.467" fill="#a698b7" d="M 196.5,261.5 C 195.92,263.749 194.587,265.415 192.5,266.5C 193.08,264.251 194.413,262.585 196.5,261.5 Z"/></g>
<g><path style="opacity:0.118" fill="#877c98" d="M 192.5,266.5 C 192.167,267.5 191.5,268.167 190.5,268.5C 190.5,267.167 191.167,266.5 192.5,266.5 Z"/></g>
<g><path style="opacity:0.984" fill="#ccbfd6" d="M 137.5,266.5 C 139.218,268.223 140.551,270.223 141.5,272.5C 138.675,271.522 137.342,269.522 137.5,266.5 Z"/></g>
<g><path style="opacity:0.043" fill="#7a7189" d="M 264.5,269.5 C 264.573,271.027 263.906,272.027 262.5,272.5C 262.427,270.973 263.094,269.973 264.5,269.5 Z"/></g>
<g><path style="opacity:0.051" fill="#7b718a" d="M 187.5,272.5 C 187.167,273.5 186.5,274.167 185.5,274.5C 185.5,273.167 186.167,272.5 187.5,272.5 Z"/></g>
<g><path style="opacity:0.153" fill="#a68ecc" d="M 262.5,272.5 C 262.167,273.5 261.5,274.167 260.5,274.5C 260.5,273.167 261.167,272.5 262.5,272.5 Z"/></g>
<g><path style="opacity:0.09" fill="#8b7f94" d="M 141.5,272.5 C 142.906,272.973 143.573,273.973 143.5,275.5C 142.094,275.027 141.427,274.027 141.5,272.5 Z"/></g>
<g><path style="opacity:1" fill="#d9cfe4" d="M 260.5,274.5 C 258.159,277.839 255.826,281.172 253.5,284.5C 252.893,280.284 254.56,277.45 258.5,276C 258.167,275.667 257.833,275.333 257.5,275C 258.448,274.517 259.448,274.351 260.5,274.5 Z"/></g>
<g><path style="opacity:1" fill="#e3daea" d="M 69.5,267.5 C 71.2128,268.305 72.8794,269.305 74.5,270.5C 73.3387,272.224 73.5053,273.89 75,275.5C 80.5719,277.31 82.4052,280.977 80.5,286.5C 76.0771,280.661 72.4104,274.327 69.5,267.5 Z"/></g>
<g><path style="opacity:1" fill="#d7cee0" d="M 145.5,279.5 C 147.588,281.336 148.921,283.669 149.5,286.5C 148.099,286.029 146.766,285.362 145.5,284.5C 146.535,282.872 146.535,281.205 145.5,279.5 Z"/></g>
<g><path style="opacity:0.227" fill="#a295af" d="M 180.5,281.5 C 179.92,283.749 178.587,285.415 176.5,286.5C 177.08,284.251 178.413,282.585 180.5,281.5 Z"/></g>
<g><path style="opacity:1" fill="#d4c4db" d="M 80.5,286.5 C 83.3126,287.446 84.646,289.446 84.5,292.5C 82.6736,290.853 81.3403,288.853 80.5,286.5 Z"/></g>
<g><path style="opacity:1" fill="#d6cde3" d="M 149.5,286.5 C 152.164,288.484 153.831,291.151 154.5,294.5C 153.504,294.586 152.671,294.252 152,293.5C 151.153,291.146 150.32,288.812 149.5,286.5 Z"/></g>
<g><path style="opacity:1" fill="#e2d9ea" d="M 175.5,288.5 C 175.28,291.933 173.946,294.767 171.5,297C 171.833,297.333 172.167,297.667 172.5,298C 168.71,299.693 166.043,301.86 164.5,304.5C 167.205,298.396 170.872,293.063 175.5,288.5 Z"/></g>
<g><path style="opacity:1" fill="#dad0e3" d="M 253.5,284.5 C 249.135,290.523 244.801,296.523 240.5,302.5C 240.854,300.459 240.854,298.626 240.5,297C 242.014,294.744 244.014,293.244 246.5,292.5C 246.754,289.986 247.587,287.652 249,285.5C 249.333,285.833 249.667,286.167 250,286.5C 250.71,285.027 251.876,284.36 253.5,284.5 Z"/></g>
<g><path style="opacity:0.176" fill="#978daa" d="M 85.5,295.5 C 86.9063,295.973 87.573,296.973 87.5,298.5C 86.0937,298.027 85.427,297.027 85.5,295.5 Z"/></g>
<g><path style="opacity:0.016" fill="#786d8a" d="M 88.5,300.5 C 89.6737,301.514 90.3404,302.847 90.5,304.5C 88.8958,303.713 88.2291,302.38 88.5,300.5 Z"/></g>
<g><path style="opacity:1" fill="#e8e2ed" d="M 154.5,294.5 C 157.326,297.484 159.659,300.817 161.5,304.5C 161.5,305.167 161.5,305.833 161.5,306.5C 160.064,306.245 158.564,305.912 157,305.5C 156.379,301.75 155.546,298.084 154.5,294.5 Z"/></g>
<g><path style="opacity:0.604" fill="#75727a" d="M 161.5,304.5 C 162.167,304.5 162.833,304.5 163.5,304.5C 163.5,305.833 162.833,306.5 161.5,306.5C 161.5,305.833 161.5,305.167 161.5,304.5 Z"/></g>
<g><path style="opacity:1" fill="#d8cee2" d="M 238.5,304.5 C 237.617,307.704 235.95,310.371 233.5,312.5C 233.17,308.512 234.837,305.845 238.5,304.5 Z"/></g>
<g><path style="opacity:1" fill="#dacfe2" d="M 229.5,318.5 C 227.646,322.221 225.313,325.554 222.5,328.5C 222.227,326.549 222.893,325.049 224.5,324C 224.167,323.667 223.833,323.333 223.5,323C 225.301,322.683 225.634,322.016 224.5,321C 226.249,320.215 227.916,319.382 229.5,318.5 Z"/></g>
<g><path style="opacity:1" fill="#ede6ef" d="M 222.5,328.5 C 219.664,334.178 216.331,339.511 212.5,344.5C 213.224,341.065 213.39,337.731 213,334.5C 214.343,333.786 215.676,334.12 217,335.5C 217.36,333.392 218.027,331.392 219,329.5C 220.011,328.663 221.178,328.33 222.5,328.5 Z"/></g>
<g><path style="opacity:0.984" fill="#a398af" d="M 111.5,342.5 C 113.048,342.821 113.715,343.821 113.5,345.5C 112.599,344.71 111.932,343.71 111.5,342.5 Z"/></g>
<g><path style="opacity:1" fill="#e2d9e9" d="M 212.5,344.5 C 210.225,349.429 207.559,354.096 204.5,358.5C 203.489,355.136 204.322,352.136 207,349.5C 207.333,349.833 207.667,350.167 208,350.5C 207.851,347.16 209.351,345.16 212.5,344.5 Z"/></g>
<g><path style="opacity:1" fill="#ede6f0" d="M 204.5,358.5 C 202.197,363.107 199.53,367.44 196.5,371.5C 195.508,371.672 194.842,371.338 194.5,370.5C 196.011,366.845 197.678,363.178 199.5,359.5C 201.045,358.548 202.712,358.215 204.5,358.5 Z"/></g>
<g><path style="opacity:1" fill="#e3d8ea" d="M 124.5,364.5 C 125.5,364.5 126.5,364.5 127.5,364.5C 127.941,368.048 129.441,371.048 132,373.5C 132.495,375.473 132.662,377.473 132.5,379.5C 131.599,378.71 130.932,377.71 130.5,376.5C 130.573,374.973 129.906,373.973 128.5,373.5C 126.909,370.648 125.576,367.648 124.5,364.5 Z"/></g>
<g><path style="opacity:1" fill="#d5ccdd" d="M 194.5,370.5 C 194.842,371.338 195.508,371.672 196.5,371.5C 195.029,375.776 193.029,379.776 190.5,383.5C 190.44,380.979 191.106,378.646 192.5,376.5C 191.515,374.088 192.182,372.088 194.5,370.5 Z"/></g>
<g><path style="opacity:0.012" fill="#6e5f7e" d="M 128.5,373.5 C 129.906,373.973 130.573,374.973 130.5,376.5C 129.094,376.027 128.427,375.027 128.5,373.5 Z"/></g>
<g><path style="opacity:0.573" fill="#817d8b" d="M 132.5,380.5 C 133.906,380.973 134.573,381.973 134.5,383.5C 133.094,383.027 132.427,382.027 132.5,380.5 Z"/></g>
<g><path style="opacity:1" fill="#ede5f0" d="M 135.5,384.5 C 136.239,384.369 136.906,384.536 137.5,385C 139.362,388.406 141.862,391.239 145,393.5C 147.27,398.247 148.437,403.247 148.5,408.5C 147.115,407.426 145.949,406.093 145,404.5C 141.581,397.994 138.415,391.328 135.5,384.5 Z"/></g>
<g><path style="opacity:0.925" fill="#ab9dbb" d="M 183.5,396.5 C 183.727,398.933 182.727,400.599 180.5,401.5C 180.721,399.336 181.721,397.67 183.5,396.5 Z"/></g>
<g><path style="opacity:1" fill="#d3c9dc" d="M 180.5,402.5 C 178.408,406.884 176.408,411.217 174.5,415.5C 173.489,412.643 173.489,410.31 174.5,408.5C 174.846,407.304 175.346,407.304 176,408.5C 176.575,405.714 178.075,403.714 180.5,402.5 Z"/></g>
<g><path style="opacity:1" fill="#ddd1e5" d="M 173.5,416.5 C 170.72,423.054 167.72,429.388 164.5,435.5C 164.586,433.323 165.253,431.323 166.5,429.5C 166.167,428.833 165.833,428.167 165.5,427.5C 166.863,426.107 167.696,424.441 168,422.5C 169.666,423.34 169.833,422.84 168.5,421C 169.651,418.8 171.318,417.3 173.5,416.5 Z"/></g>
<g><path style="opacity:1" fill="#e7ddee" d="M 156.5,424.5 C 157.496,424.414 158.329,424.748 159,425.5C 159.219,426.938 159.719,428.271 160.5,429.5C 161.086,429.291 161.586,428.957 162,428.5C 162.279,431.457 163.113,434.123 164.5,436.5C 164.5,436.833 164.5,437.167 164.5,437.5C 163.833,437.5 163.167,437.5 162.5,437.5C 160.229,433.291 158.229,428.958 156.5,424.5 Z"/></g>
</svg>
